<?xml version="1.0" encoding="iso-8859-1"?>
<!-- Generator: Adobe Illustrator 18.0.0, SVG Export Plug-In . SVG Version: 6.00 Build 0)  -->
<!DOCTYPE svg PUBLIC "-//W3C//DTD SVG 1.1//EN" "http://www.w3.org/Graphics/SVG/1.1/DTD/svg11.dtd">
<svg version="1.1" id="Capa_1" xmlns="http://www.w3.org/2000/svg" xmlns:xlink="http://www.w3.org/1999/xlink" x="0px" y="0px"
	 viewBox="0 0 458.383 458.383" style="enable-background:new 0 0 458.383 458.383;" xml:space="preserve">
<g>
	<path d="M355.434,236.477V29.258C355.434,13.137,342.32,0,326.164,0H175.496c-16.121,0-29.266,13.137-29.266,29.258v23.539h-14.012
		c-16.152,0-29.266,13.137-29.266,29.269v154.41H81.801c-9.809,0-17.762,7.952-17.762,17.762v186.383
		c0,9.81,7.952,17.762,17.762,17.762h294.781c9.81,0,17.762-7.952,17.762-17.762V254.238c0-9.81-7.952-17.762-17.762-17.762H355.434
		z M175.496,17.935h150.67c6.256,0,11.346,5.073,11.346,11.324v207.216h-25.357V122.057l-69.52-69.259h-78.406l-0.047-23.538
		C164.182,23.009,169.238,17.935,175.496,17.935z M120.871,82.063c0-6.241,5.092-11.331,11.348-11.331l103.719-0.104v38.329
		c0,11.215,9.109,20.308,20.283,20.308l37.572-0.102l0.268,107.312H120.871V82.063z M362.068,426.104H96.316V268.753h265.752
		V426.104z"/>
	<path d="M300.461,310.047c0-8.914-7.215-16.137-16.137-16.137c-8.922,0-16.141,7.223-16.141,16.137v21.246h-77.996v-21.246
		c0-8.914-7.219-16.137-16.137-16.137c-8.922,0-16.141,7.223-16.141,16.137v35.762c0,9.81,7.952,17.762,17.762,17.762h107.027
		c9.81,0,17.762-7.952,17.762-17.762V310.047z"/>
</g>
<g>
</g>
<g>
</g>
<g>
</g>
<g>
</g>
<g>
</g>
<g>
</g>
<g>
</g>
<g>
</g>
<g>
</g>
<g>
</g>
<g>
</g>
<g>
</g>
<g>
</g>
<g>
</g>
<g>
</g>
</svg>
